{"title":"Ant-Man.2015.2016.720p.BRRIP.x265.HEVC.10bit.DTS.5.1[755]-ROIMEZ","uid":15382801,"size":2531865363,"categoryP":"video","categoryS":"movies","magnet":"?xt=urn:btih:67b038e0ca21cfde9de4e8e83cee2d1becbb81ec&amp;dn=Ant-Man.2015.2016.720p.BRRIP.x265.HEVC.10bit.DTS.5.1%5B755%5D-ROIMEZ&amp;tr=udp%3A%2F%2Ftracker.leechers-paradise.org%3A6969&amp;tr=udp%3A%2F%2Fzer0day.ch%3A1337&amp;tr=udp%3A%2F%2Fopen.demonii.com%3A1337&amp;tr=udp%3A%2F%2Ftracker.coppersurfer.tk%3A6969&amp;tr=udp%3A%2F%2Fexodus.desync.com%3A6969","seeders":1,"leechers":0,"uploader":"Pirulo233","files":7,"time":1469248363,"description":"Nota: Los &quot;screencaps&quot; propios estan en una carpeta aparte por si desean bajarla antes de bajar el torrent o la película en su totalidad.\r\n\r\nNote: The &quot;screencaps&quot; themselves are in a separate folder in case you want to download it before downloading the torrent or the film in its entirety.\r\n\r\nComplete name:\r\nAnt-Man.2015.2016.720p.BRRIP.x265.HEVC.10bit.DTS.5.1[755]-ROIMEZ\r\nArmed with a super-suit with the astonishing ability to shrink in scale but increase in strength, cat burglar Scott Lang must embrace his inner hero and help his mentor, Dr. Hank Pym, plan and pull off a heist that will save the world.\r\n\r\nGenres: Action, Adventure, Comedy\r\nCast: Paul Rudd, Michael Douglas, Corey Stoll\r\n\r\nRelease date: 24 July 2015\r\nLanguage: English\r\nSubtitles: English &amp; Spanish\r\nSource: Ant-Man.2015.1080p.BluRay.x264.DTS-HD.MA.7.1-RARBG\r\n\r\nGeneral\r\nFormat : Matroska\r\nFormat version : Version 4 / Version 2\r\nFile size : 2.35 GiB\r\nDuration : 1h 57mn\r\nOverall bit rate : 2 878 Kbps\r\nEncoded date : UTC 2016-06-13 14:20:51\r\nWriting application : mkvmerge v9.0.1 ('Obstacles') 64bit\r\nWriting library : libebml v1.3.3 + libmatroska v1.4.4\r\n\r\nVideo\r\nID : 1\r\nFormat : HEVC\r\nFormat/Info : High Efficiency Video Coding\r\nFormat profile : Main   @Main\r\nCodec ID : V_MPEGH/ISO/HEVC\r\nDuration : 1h 57mn\r\nEncoding settings[Bit rate] : 2 pass/2 121 Kbps\r\nWidth : 1 280 pixels\r\nHeight : 688 pixels\r\nDisplay aspect ratio : 1.85:1\r\nFrame rate mode : Constant\r\nFrame rate : 23.976 (24000/1001) fps\r\nOriginal frame rate : 23.976 (23976/1000) fps\r\nColor space : YUV\r\nChroma subsampling : 4:2:0\r\nBit depth : 10 bits\r\nBits/(Pixel*Frame) : 0.100\r\nStream size : 1.73 GiB (74%)\r\nWriting library : x265 1.9+140\r\nDefault : Yes\r\nForced : No\r\n\r\nAudio\r\nID : 2\r\nFormat : DTS\r\nFormat/Info : Digital Theater Systems\r\nMode : 16\r\nFormat settings, Endianness : Big\r\nCodec ID : A_DTS\r\nDuration : 1h 57mn\r\nBit rate mode : Constant\r\nBit rate : 755 Kbps\r\nChannel(s) : 6 channels\r\nChannel positions : Front: L C R, Side: L R, LFE\r\nSampling rate : 48.0 KHz\r\nFrame rate : 93.750 fps (512 spf)\r\nBit depth : 24 bits\r\nCompression mode : Lossy\r\nStream size : 632 MiB (26%)\r\nDefault : Yes\r\nForced : No","torrent":{"xt":"urn:btih:67b038e0ca21cfde9de4e8e83cee2d1becbb81ec","amp;dn":"Ant-Man.2015.2016.720p.BRRIP.x265.HEVC.10bit.DTS.5.1%5B755%5D-ROIMEZ","amp;tr":["udp%3A%2F%2Ftracker.leechers-paradise.org%3A6969","udp%3A%2F%2Fzer0day.ch%3A1337","udp%3A%2F%2Fopen.demonii.com%3A1337","udp%3A%2F%2Ftracker.coppersurfer.tk%3A6969","udp%3A%2F%2Fexodus.desync.com%3A6969"],"infoHash":"67b038e0ca21cfde9de4e8e83cee2d1becbb81ec","infoHashBuffer":{"type":"Buffer","data":[103,176,56,224,202,33,207,222,157,228,232,232,60,238,45,27,236,187,129,236]},"announce":[],"urlList":[]}}